<svg preserveAspectRatio="none" width="100%" height="100%" overflow="visible" style="display: block;" viewBox="0 0 18 18" fill="none" xmlns="http://www.w3.org/2000/svg">
<path id="Vector" fill-rule="evenodd" clip-rule="evenodd" d="M11.5 2C9.01472 2 7 4.01472 7 6.5C7 8.98528 9.01472 11 11.5 11C13.9853 11 16 8.98528 16 6.5C16 4.01472 13.9853 2 11.5 2ZM5 6.5C5 2.91015 7.91015 -1.19209e-07 11.5 0C15.0898 1.78814e-07 18 2.91015 18 6.5C18 10.0899 15.0898 13 11.5 13C10.0659 13 8.74026 12.5356 7.66531 11.7489L1.70711 17.7071C1.31658 18.0976 0.683418 18.0976 0.292893 17.7071C-0.0976311 17.3166 -0.0976311 16.6834 0.292893 16.2929L6.2511 10.3347C5.46443 9.25973 5 7.9341 5 6.5Z" fill="var(--fill-0, #001657)"/>
</svg>
