<svg preserveAspectRatio="none" width="100%" height="100%" overflow="visible" style="display: block;" viewBox="0 0 64 34.5" fill="none" xmlns="http://www.w3.org/2000/svg">
<g id="Logomark" clip-path="url(#clip0_3947_408765)">
<path id="Fill" fill-rule="evenodd" clip-rule="evenodd" d="M10.6439 9.00931C13.2099 9.00931 14.4521 8.17717 14.4521 5.37688C14.4521 3.99063 13.7898 3.40872 12.2992 3.40872H11.0577L9.87157 9.00931H10.6439ZM28.0572 12.8073L27.9748 10.7835C27.9195 9.48001 27.8918 8.17717 27.8918 6.87433C27.8918 5.95944 27.9472 4.79496 28.0572 3.35311C27.6157 4.76716 27.0641 6.15341 26.4296 7.56746L24.0553 12.8073H28.0572ZM39.364 20.6269C35.4181 20.6269 33.4036 18.7971 33.4036 15.1653C33.4036 13.8625 33.8175 11.7837 34.4244 8.84443C35.0036 6.1269 35.5005 4.24215 36.0797 3.21604C37.3779 0.970502 39.2533 0 42.1792 0C45.905 0 47.7534 1.60802 47.7534 4.87966C47.7534 5.40662 47.6981 5.98853 47.6157 6.59825H43.5314C43.6144 5.76676 43.6691 5.212 43.6691 4.96307C43.6691 3.60398 43.1175 2.96646 41.9307 2.96646C40.7163 2.96646 40.1093 3.63243 39.6125 5.10144C39.364 5.85017 38.9496 7.62435 38.3433 10.4525C37.8464 12.8364 37.598 14.4722 37.598 15.3037C37.598 16.7177 38.2326 17.4942 39.3917 17.4942C41.02 17.4942 41.6546 16.3576 42.0961 13.7519H46.2358C45.5999 18.4369 43.4483 20.6269 39.364 20.6269ZM55.4322 19.2406C55.1703 19.8193 54.4385 20.292 53.8058 20.292H50.0433L48.5438 0.331044H52.8482L53.2897 10.5895C53.3804 12.7161 53.4384 14.7483 53.3 16.7442C53.7698 14.9972 54.2937 13.5838 54.7352 12.5021L59.214 1.40241C59.4522 0.813385 60.1634 0.331044 60.7967 0.331044H63.9973L55.4322 19.2406ZM7.73546 19.1624C7.60416 19.7838 6.97987 20.292 6.34785 20.292H3.33064L7.55267 0.331044H12.4923C16.7704 0.331044 18.8125 1.35715 18.8125 4.35142C18.8125 8.12157 17.2119 10.1182 13.7622 10.5895C15.832 10.8113 16.8251 11.7262 16.8251 13.4448C16.8251 13.6944 16.7974 14.1935 16.6873 14.9972L16.3288 17.4095C16.2181 18.1305 16.1905 18.7124 16.1905 19.1837C16.1905 19.4883 16.2181 19.8491 16.2735 20.292H11.8577C11.9961 17.021 12.6861 14.9138 12.6861 13.8327C12.6861 12.3915 11.9137 12.1419 9.98163 12.1419H9.20866L7.73546 19.1624ZM16.2735 20.292L25.9604 0.331044H31.3969L32.5283 20.292H28.361L28.1679 15.8015H22.7037L21.1391 19.2413C20.8765 19.8193 20.1435 20.292 19.5115 20.292H16.2735Z" fill="var(--fill-0, white)"/>
<path id="Fill_2" fill-rule="evenodd" clip-rule="evenodd" d="M33.8158 22.6605L33.0814 26.0064C37.1529 25.4671 41.2282 25.1039 45.2964 24.9123C45.3905 24.9073 45.5801 24.8992 45.6303 24.6701L46.1042 22.5088C41.9831 22.4133 37.8846 22.4664 33.8158 22.6605ZM16.0904 29.2967C21.1605 27.9954 26.2603 26.9825 31.3671 26.2435C31.4922 26.2261 31.7417 26.1905 31.812 25.871L32.5025 22.7273C27.3485 23.0119 22.2423 23.5224 17.1974 24.2539L16.0904 29.2967ZM47.395 22.5425L46.8901 24.8443C50.5006 24.7151 54.104 24.7182 57.6925 24.8555C57.7505 24.858 57.8659 24.8624 57.9459 24.7001C57.9478 24.6964 58.6667 23.2484 58.6667 23.2484C54.8944 22.8895 51.1356 22.6568 47.395 22.5425ZM0 34.4394C4.69746 32.6314 9.44198 31.0861 14.2149 29.7929C14.3806 29.748 14.712 29.66 14.808 29.2212L15.8544 24.4555C11.0351 25.1925 6.27188 26.1287 1.57635 27.2584L0 34.4394Z" fill="var(--fill-0, #F8DB00)"/>
</g>
<defs>
<clipPath id="clip0_3947_408765">
<rect width="64" height="34.5" fill="white"/>
</clipPath>
</defs>
</svg>
