<svg preserveAspectRatio="none" width="100%" height="100%" overflow="visible" style="display: block;" viewBox="0 0 133 72" fill="none" xmlns="http://www.w3.org/2000/svg">
<g id="Logomark" clip-path="url(#clip0_5785_38880)">
<path id="Fill" fill-rule="evenodd" clip-rule="evenodd" d="M22.1193 18.802C27.4519 18.802 30.0333 17.0654 30.0333 11.2213C30.0333 8.32827 28.657 7.11385 25.5594 7.11385H22.9794L20.5144 18.802H22.1193ZM58.3064 26.7282L58.1352 22.5047C58.0202 19.7844 57.9627 17.0654 57.9627 14.3464C57.9627 12.4371 58.0777 10.0069 58.3064 6.9978C57.3889 9.94886 56.2427 12.8419 54.9239 15.793L49.9899 26.7282H58.3064ZM81.8034 43.0474C73.6033 43.0474 69.4169 39.2287 69.4169 31.6493C69.4169 28.9304 70.2769 24.5922 71.5382 18.4579C72.7419 12.7866 73.7745 8.85318 74.9782 6.71173C77.6759 2.0254 81.5734 0 87.6536 0C95.3963 0 99.2376 3.35587 99.2376 10.1836C99.2376 11.2834 99.1225 12.4978 98.9513 13.7703H90.4636C90.6362 12.035 90.7499 10.8772 90.7499 10.3577C90.7499 7.52135 89.6036 6.19088 87.1373 6.19088C84.6135 6.19088 83.3522 7.58072 82.3197 10.6465C81.8034 12.209 80.9421 15.9117 79.6821 21.8138C78.6496 26.7889 78.1333 30.2028 78.1333 31.9381C78.1333 34.8891 79.4521 36.5097 81.8609 36.5097C85.2448 36.5097 86.5635 34.1376 87.481 28.6996H96.0838C94.7623 38.4771 90.2911 43.0474 81.8034 43.0474ZM115.195 40.1544C114.651 41.362 113.13 42.3484 111.815 42.3484H103.996L100.88 0.690874H109.825L110.743 22.0999C110.931 26.5379 111.052 30.779 110.764 34.9445C111.74 31.2985 112.829 28.3488 113.747 26.0913L123.054 2.92677C123.549 1.6975 125.027 0.690874 126.343 0.690874H132.994L115.195 40.1544ZM16.0752 39.9911C15.8024 41.2878 14.505 42.3484 13.1916 42.3484H6.92148L15.6954 0.690874H25.9606C34.8509 0.690874 39.0947 2.83231 39.0947 9.08122C39.0947 16.9494 35.7684 21.1162 28.5995 22.0999C32.9008 22.5627 34.9646 24.4721 34.9646 28.0587C34.9646 28.5795 34.9071 29.6212 34.6784 31.2985L33.9334 36.333C33.7033 37.8375 33.6458 39.0519 33.6458 40.0356C33.6458 40.6712 33.7033 41.4241 33.8184 42.3484H24.6419C24.9294 35.522 26.3632 31.1244 26.3632 28.8683C26.3632 25.8606 24.7582 25.3397 20.7431 25.3397H19.1368L16.0752 39.9911ZM33.8184 42.3484L53.9489 0.690874H65.2466L67.5979 42.3484H58.9377L58.5365 32.9771H47.1812L43.9298 40.1557C43.3841 41.362 41.8607 42.3484 40.5473 42.3484H33.8184Z" fill="var(--fill-0, white)"/>
<path id="Fill_2" fill-rule="evenodd" clip-rule="evenodd" d="M70.2734 47.2915L68.7474 54.2742C77.2083 53.1488 85.6773 52.3908 94.1315 51.9909C94.3271 51.9805 94.7211 51.9635 94.8256 51.4855L95.8103 46.975C87.2462 46.7757 78.729 46.8864 70.2734 47.2915ZM33.4378 61.141C43.9741 58.4253 54.5721 56.3113 65.1848 54.7691C65.4447 54.7327 65.9632 54.6584 66.1093 53.9915L67.5442 47.4308C56.8337 48.0248 46.2224 49.0902 35.7383 50.6168L33.4378 61.141ZM98.4926 47.0453L97.4436 51.8489C104.947 51.5793 112.435 51.5858 119.892 51.8724C120.013 51.8776 120.253 51.8867 120.419 51.548C120.423 51.5402 121.917 48.5184 121.917 48.5184C114.077 47.7695 106.266 47.2836 98.4926 47.0453ZM0 71.8736C9.76191 68.1003 19.6216 64.8753 29.5403 62.1765C29.8846 62.0827 30.5733 61.899 30.7729 60.9834L32.9474 51.0375C22.9323 52.5757 13.0337 54.5295 3.27585 56.887L0 71.8736Z" fill="var(--fill-0, #F8DB00)"/>
</g>
<defs>
<clipPath id="clip0_5785_38880">
<rect width="133" height="72" fill="white"/>
</clipPath>
</defs>
</svg>
