<svg width="37" height="20" viewBox="0 0 37.1429 20.0223" fill="none" xmlns="http://www.w3.org/2000/svg" aria-hidden="true">
  <g clip-path="url(#clip0_racv_rating)">
    <path fill-rule="evenodd" clip-rule="evenodd" d="M6.17912 5.22862C7.66835 5.22862 8.38924 4.74568 8.38924 3.12051C8.38924 2.31599 8.00489 1.97827 7.13982 1.97827H6.4193L5.7309 5.22862H6.17912ZM16.2851 7.43278L16.2373 6.25828C16.2051 5.50179 16.1891 4.74568 16.1891 3.98957C16.1891 3.4586 16.2212 2.78279 16.2851 1.946C16.0288 2.76666 15.7087 3.57117 15.3404 4.39183L13.9625 7.43278H16.2851ZM22.8471 11.971C20.557 11.971 19.3879 10.909 19.3879 8.80129C19.3879 8.04518 19.6281 6.83878 19.9803 5.13293C20.3165 3.55579 20.6048 2.46196 20.941 1.86645C21.6944 0.563238 22.7828 0 24.4808 0C26.6431 0 27.7159 0.933226 27.7159 2.83195C27.7159 3.13777 27.6838 3.47549 27.636 3.82934H25.2656C25.3138 3.34678 25.3455 3.02482 25.3455 2.88035C25.3455 2.0916 25.0254 1.72161 24.3367 1.72161C23.6318 1.72161 23.2796 2.10811 22.9912 2.96066C22.8471 3.39519 22.6065 4.42485 22.2547 6.06615C21.9663 7.44967 21.8221 8.39903 21.8221 8.88159C21.8221 9.70225 22.1904 10.1529 22.8631 10.1529C23.8081 10.1529 24.1764 9.49324 24.4327 7.98101H26.8351C26.4661 10.7 25.2174 11.971 22.8471 11.971ZM32.1724 11.1664C32.0203 11.5023 31.5956 11.7766 31.2285 11.7766H29.0449L28.1746 0.192124H30.6727L30.9289 6.14571C30.9816 7.37988 31.0152 8.55926 30.9349 9.71763C31.2076 8.70373 31.5116 7.88345 31.7678 7.25567L34.3672 0.813899C34.5054 0.472054 34.9181 0.192124 35.2856 0.192124H37.1432L32.1724 11.1664ZM4.49119 11.121C4.41499 11.4816 4.05268 11.7766 3.68588 11.7766H1.93482L4.38511 0.192124H7.25187C9.73466 0.192124 10.9198 0.787632 10.9198 2.52538C10.9198 4.71341 9.99089 5.87215 7.98883 6.14571C9.19007 6.27441 9.76641 6.80538 9.76641 7.80277C9.76641 7.94762 9.75035 8.2373 9.68647 8.70373L9.47842 10.1038C9.41418 10.5221 9.39812 10.8599 9.39812 11.1334C9.39812 11.3102 9.41418 11.5195 9.4463 11.7766H6.88358C6.96389 9.87823 7.3643 8.65532 7.3643 8.02792C7.3643 7.1915 6.91608 7.04666 5.79477 7.04666H5.34618L4.49119 11.121ZM9.4463 11.7766L15.0681 0.192124H18.2233L18.8799 11.7766H16.4614L16.3493 9.17053H13.1781L12.2701 11.1668C12.1177 11.5023 11.6923 11.7766 11.3255 11.7766H9.4463Z" fill="#ffffff"/>
    <path fill-rule="evenodd" clip-rule="evenodd" d="M19.6252 13.1512L19.199 15.093C21.5619 14.78 23.9271 14.5692 26.2881 14.458C26.3427 14.4551 26.4527 14.4504 26.4819 14.3175L26.7569 13.0632C24.3652 13.0077 21.9866 13.0385 19.6252 13.1512ZM9.33816 17.0026C12.2806 16.2474 15.2403 15.6595 18.2041 15.2306C18.2767 15.2205 18.4215 15.1998 18.4623 15.0144L18.863 13.1899C15.8719 13.3551 12.9085 13.6514 9.98062 14.0759L9.33816 17.0026ZM27.506 13.0827L27.213 14.4186C29.3084 14.3436 31.3996 14.3454 33.4822 14.4251C33.5159 14.4265 33.5829 14.4291 33.6293 14.3349C33.6304 14.3327 34.0476 13.4924 34.0476 13.4924C31.8583 13.2841 29.6769 13.149 27.506 13.0827ZM0 19.9872C2.7262 18.9379 5.47972 18.041 8.2497 17.2905C8.34587 17.2644 8.53819 17.2134 8.59394 16.9587L9.20122 14.1929C6.4043 14.6207 3.63993 15.164 0.914846 15.8196L0 19.9872Z" fill="#F8DB00"/>
  </g>
  <defs>
    <clipPath id="clip0_racv_rating">
      <rect width="37.1429" height="20.0223" fill="white"/>
    </clipPath>
  </defs>
</svg>
