<svg preserveAspectRatio="none" width="100%" height="100%" overflow="visible" style="display: block;" viewBox="0 0 92.7536 50" fill="none" xmlns="http://www.w3.org/2000/svg">
<g id="Logomark" clip-path="url(#clip0_5784_38527)">
<path id="Fill" fill-rule="evenodd" clip-rule="evenodd" d="M15.4259 13.057C19.1448 13.057 20.9451 11.851 20.9451 7.79257C20.9451 5.78352 19.9853 4.94017 17.825 4.94017H16.0257L14.3066 13.057H15.4259ZM40.6626 18.5612L40.5432 15.6283C40.463 13.7391 40.4229 11.851 40.4229 9.9628C40.4229 8.63686 40.5031 6.94922 40.6626 4.85958C40.0228 6.90893 39.2234 8.91798 38.3037 10.9673L34.8627 18.5612H40.6626ZM57.0493 29.894C51.3306 29.894 48.4111 27.2422 48.4111 21.9787C48.4111 20.0905 49.0108 17.0779 49.8904 12.818C50.7299 8.87956 51.45 6.14804 52.2895 4.66093C54.1708 1.40652 56.8889 0 61.1292 0C66.529 0 69.2078 2.33046 69.2078 7.07198C69.2078 7.83568 69.1276 8.67903 69.0082 9.56268H63.0889C63.2093 8.35762 63.2885 7.55362 63.2885 7.19286C63.2885 5.22316 62.4892 4.29922 60.7692 4.29922C59.0091 4.29922 58.1295 5.26439 57.4094 7.39339C57.0493 8.4785 56.4486 11.0498 55.57 15.1485C54.8499 18.6034 54.4898 20.9742 54.4898 22.1792C54.4898 24.2286 55.4095 25.354 57.0894 25.354C59.4493 25.354 60.369 23.7066 61.0089 19.9303H67.0084C66.0868 26.7202 62.9686 29.894 57.0493 29.894ZM80.3366 27.885C79.9569 28.7236 78.8964 29.4086 77.9795 29.4086H72.5266L70.3533 0.479774H76.5915L77.2314 15.3471C77.3629 18.4291 77.4469 21.3743 77.2463 24.267C77.9272 21.7351 78.6865 19.6867 79.3264 18.119L85.8174 2.03248C86.1626 1.17882 87.1933 0.479774 88.1111 0.479774H92.7497L80.3366 27.885ZM11.2108 27.7716C11.0205 28.6721 10.1157 29.4086 9.19978 29.4086H4.82701L10.9459 0.479774H18.1048C24.3049 0.479774 27.2645 1.96688 27.2645 6.3064C27.2645 11.7704 24.9447 14.664 19.9451 15.3471C22.9449 15.6685 24.3841 16.9945 24.3841 19.4852C24.3841 19.8469 24.344 20.5703 24.1845 21.7351L23.665 25.2312C23.5046 26.276 23.4644 27.1194 23.4644 27.8025C23.4644 28.2439 23.5046 28.7667 23.5848 29.4086H17.1851C17.3857 24.6681 18.3856 21.6142 18.3856 20.0474C18.3856 17.9587 17.2663 17.597 14.4661 17.597H13.3459L11.2108 27.7716ZM23.5848 29.4086L37.6237 0.479774H45.5027L47.1425 29.4086H41.1029L40.8231 22.9008H32.904L30.6364 27.8859C30.2559 28.7236 29.1934 29.4086 28.2775 29.4086H23.5848Z" fill="var(--fill-0, #1F5AA5)"/>
<path id="Fill_2" fill-rule="evenodd" clip-rule="evenodd" d="M49.0084 32.8413L47.9441 37.6904C53.8447 36.9089 59.751 36.3825 65.6469 36.1048C65.7833 36.0976 66.058 36.0858 66.1309 35.7538L66.8177 32.6215C60.8451 32.4831 54.9053 32.56 49.0084 32.8413ZM23.3194 42.459C30.6674 40.5731 38.0583 39.1051 45.4596 38.0341C45.6409 38.0088 46.0025 37.9572 46.1043 37.4941L47.105 32.9381C39.6356 33.3505 32.2353 34.0904 24.9237 35.1505L23.3194 42.459ZM68.6883 32.6703L67.9567 36.0062C73.1892 35.819 78.4115 35.8235 83.6123 36.0225C83.6964 36.0261 83.8636 36.0324 83.9795 35.7973C83.9823 35.7918 85.0241 33.6934 85.0241 33.6934C79.5571 33.1733 74.1096 32.8359 68.6883 32.6703ZM0 49.9122C6.80791 47.2919 13.684 45.0523 20.6013 43.1781C20.8414 43.113 21.3217 42.9854 21.4609 42.3496L22.9774 35.4427C15.9929 36.5109 9.08967 37.8677 2.28457 39.5049L0 49.9122Z" fill="var(--fill-0, #F8DB00)"/>
</g>
<defs>
<clipPath id="clip0_5784_38527">
<rect width="92.7536" height="50" fill="white"/>
</clipPath>
</defs>
</svg>
